# xmcd
#
# Track frame offsets:
#	150
#	13119
#	29462
#	44332
#	67036
#	89133
#	105043
#	125168
#	148185
#	171047
#	190953
#
# Disc length: 2701 seconds
#
# Revision: 1
# Processed by: cddbd v1.5.2PL0 Copyright (c) Steve Scherf et al.
# Submitted via: audiograbber 1.83.01
#
DISCID=9e0a8b0b
DTITLE=Po' Girl - Live
DYEAR=2009
DGENRE=Americana
TTITLE0=Old Mountain Line
TTITLE1=Gone In Pawn
TTITLE2=Drive All Night
TTITLE3=Le Partisan
TTITLE4=Malaise Days
TTITLE5=One Little City
TTITLE6=Better Luck
TTITLE7=Prairy Lullaby
TTITLE8=Till It's Gone
TTITLE9=Movin' On
TTITLE10=Who All Is Here
EXTD=
EXTT0=
EXTT1=
EXTT2=
EXTT3=
EXTT4=
EXTT5=
EXTT6=
EXTT7=
EXTT8=
EXTT9=
EXTT10=
PLAYORDER=
